<?xml version="1.0" encoding="UTF-8" standalone="no"?>
<!-- Created with Inkscape (http://www.inkscape.org/) -->

<svg
   width="148.81883mm"
   height="130.15794mm"
   viewBox="0 0 148.81883 130.15794"
   version="1.1"
   id="svg5"
   xml:space="preserve"
   inkscape:version="1.2 (dc2aeda, 2022-05-15)"
   sodipodi:docname="pyramid-mask.svg"
   xmlns:inkscape="http://www.inkscape.org/namespaces/inkscape"
   xmlns:sodipodi="http://sodipodi.sourceforge.net/DTD/sodipodi-0.dtd"
   xmlns="http://www.w3.org/2000/svg"
   xmlns:svg="http://www.w3.org/2000/svg"><sodipodi:namedview
     id="namedview7"
     pagecolor="#ffffff"
     bordercolor="#000000"
     borderopacity="0.25"
     inkscape:showpageshadow="2"
     inkscape:pageopacity="0.0"
     inkscape:pagecheckerboard="0"
     inkscape:deskcolor="#d1d1d1"
     inkscape:document-units="mm"
     showgrid="false"
     inkscape:zoom="0.56714668"
     inkscape:cx="126.06968"
     inkscape:cy="342.06319"
     inkscape:window-width="1390"
     inkscape:window-height="1124"
     inkscape:window-x="0"
     inkscape:window-y="25"
     inkscape:window-maximized="0"
     inkscape:current-layer="layer1"
     showguides="true"><sodipodi:guide
       position="3.2656165,86.305356"
       orientation="1,0"
       id="guide352"
       inkscape:locked="false" /><sodipodi:guide
       position="147.88575,74.642436"
       orientation="1,0"
       id="guide354"
       inkscape:locked="false" /><sodipodi:guide
       position="146.4862,137.62217"
       orientation="0,-1"
       id="guide356"
       inkscape:locked="false" /><sodipodi:guide
       position="108.69836,12.12922"
       orientation="0,-1"
       id="guide358"
       inkscape:locked="false" /></sodipodi:namedview><defs
     id="defs2" /><g
     inkscape:label="Lager 1"
     inkscape:groupmode="layer"
     id="layer1"
     transform="translate(-30.790093,-27.524448)"><path
       id="rect412"
       style="fill:#171717;fill-opacity:1;stroke-width:0.274736"
       d="M 30.790095,27.524448 V 157.6824 H 179.60891 V 27.524448 Z m 74.651775,2.110982 c 0.69882,0 1.14931,0.585013 2.88613,3.747058 1.65579,3.014502 5.41316,9.619295 5.93401,10.430888 0.25021,0.389883 1.18257,1.984953 2.0717,3.544487 0.88913,1.559532 3.01013,5.250627 4.71341,8.2026 1.70328,2.951973 3.93425,6.825414 4.95783,8.607743 1.02356,1.78232 3.25608,5.655773 4.96094,8.607744 1.70485,2.951972 3.93814,6.825422 4.963,8.607743 1.83706,3.194809 4.62633,8.042634 8.50646,14.785144 1.08979,1.893723 2.20895,3.853503 2.48718,4.354773 0.27822,0.50128 0.57607,1.00275 0.66198,1.11414 0.0859,0.1114 0.85876,1.43294 1.71721,2.93678 0.85846,1.50383 1.73266,3.03052 1.94303,3.39255 0.67781,1.16649 1.10177,1.90292 3.46646,6.02548 1.27792,2.22789 2.6455,4.59746 3.0396,5.26583 0.39409,0.66837 1.46572,2.52822 2.38125,4.13308 1.91316,3.35357 1.79019,3.13975 4.26073,7.41143 1.0308,1.78233 2.89557,5.01805 4.14393,7.19026 1.24836,2.17221 3.47813,6.04566 4.95474,8.60774 3.51457,6.09821 3.66629,6.36376 4.08398,7.15667 0.35184,0.66788 0.31179,1.20977 -0.11007,1.49862 -0.11951,0.0818 -32.49013,0.15022 -71.93461,0.15193 -69.223454,0.003 -71.728917,-0.0101 -72.052457,-0.36742 -0.184359,-0.20372 -0.334863,-0.45577 -0.334863,-0.56017 0,-0.10441 0.556701,-1.14518 1.237134,-2.31304 0.680432,-1.16787 2.290291,-3.94639 3.577559,-6.1743 1.287266,-2.2279 3.157694,-5.46363 4.156852,-7.19026 1.887217,-3.26126 5.376187,-9.32408 9.965284,-17.31677 1.471054,-2.56209 3.702813,-6.43555 4.959387,-8.60775 4.791012,-8.28209 6.079215,-10.54193 6.079215,-10.66756 0,-0.0713 0.211996,-0.41185 0.471289,-0.75655 0.259296,-0.34469 0.609623,-0.90036 0.778764,-1.23455 0.169139,-0.334179 1.337674,-2.384616 2.596224,-4.556825 1.258549,-2.172202 3.335886,-5.772639 4.616773,-8.000546 5.489126,-9.547476 10.87028,-18.885161 12.896887,-22.380029 0.872046,-1.503841 3.000051,-5.195445 4.72891,-8.203117 1.72886,-3.00767 4.326376,-7.518835 5.772258,-10.025228 1.445884,-2.506392 3.357634,-5.833298 4.248321,-7.39283 0.890693,-1.559533 2.394473,-4.157026 3.341913,-5.772258 0.94743,-1.61523 1.8476,-3.233094 1.99988,-3.595129 0.22312,-0.530488 0.39213,-0.658358 0.87178,-0.658358 z m 0.0956,2.633431 c -0.0671,0 -1.41719,2.247677 -2.12855,3.54397 -0.31336,0.571023 -4.260133,7.386564 -5.043621,8.709546 -0.197903,0.334186 -1.270435,2.202268 -2.383317,4.151685 -1.112884,1.949417 -3.052793,5.32191 -4.310848,7.494116 -1.258054,2.172208 -3.514805,6.091241 -5.015198,8.709029 -1.500393,2.617787 -2.896568,5.032929 -3.102136,5.367114 -0.205571,0.334184 -0.5638,0.956593 -0.796334,1.383378 -0.232535,0.426786 -1.116871,1.97627 -1.965255,3.443201 -0.848386,1.466929 -2.696908,4.672383 -4.107759,7.123079 -1.410852,2.450688 -3.641782,6.324148 -4.957837,8.607744 -1.316058,2.283604 -3.621713,6.293813 -5.123202,8.9116 -1.501485,2.617787 -2.887887,5.032927 -3.080949,5.367117 -0.193062,0.33418 -1.379016,2.38514 -2.635498,4.55734 -1.256481,2.17222 -3.35399,5.81771 -4.661214,8.10132 -1.30722,2.2836 -3.357365,5.83844 -4.555794,7.89926 -1.198428,2.06081 -3.236908,5.59641 -4.529956,7.85688 -1.29305,2.26047 -2.499545,4.35651 -2.680974,4.65812 -0.181427,0.30162 -1.374917,2.37129 -2.652551,4.5992 -1.277633,2.22791 -3.157008,5.50171 -4.176489,7.27501 -1.019483,1.77329 -1.853634,3.29997 -1.853634,3.39255 0,0.0926 31.451432,0.16795 69.891866,0.16795 h 69.89133 l -0.39533,-0.65784 c -0.21742,-0.36203 -1.01064,-1.75195 -1.7632,-3.0887 -0.75256,-1.33674 -1.57319,-2.74946 -1.82314,-3.13934 -0.24995,-0.38989 -1.62181,-2.75995 -3.04891,-5.26635 -1.42709,-2.50639 -3.56756,-6.24306 -4.7563,-8.30388 -1.18875,-2.06081 -3.20824,-5.56955 -4.4881,-7.79746 -1.27987,-2.2279 -3.19704,-5.5548 -4.2602,-7.39283 -1.06317,-1.83802 -2.11473,-3.66051 -2.33681,-4.0504 -0.61624,-1.0819 -5.93228,-10.34809 -6.33295,-11.0386 -2.75856,-4.754136 -8.943,-15.477954 -9.84074,-17.064078 -0.23628,-0.417447 -1.27419,-2.217435 -2.30632,-3.999756 -1.03213,-1.782321 -3.10755,-5.382241 -4.61212,-8.000028 -3.07363,-5.347783 -6.40157,-11.134825 -6.93032,-12.050944 -0.19288,-0.334184 -0.96412,-1.65276 -1.71359,-2.930054 -0.74946,-1.277294 -1.58129,-2.7356 -1.84847,-3.240629 -0.26718,-0.50503 -0.73707,-1.336 -1.04438,-1.846916 -0.30731,-0.510915 -1.51596,-2.585479 -2.68562,-4.610054 -2.41707,-4.183781 -2.55517,-4.425306 -4.73408,-8.261512 -0.87718,-1.544368 -1.79758,-3.126698 -2.04535,-3.516581 -0.24778,-0.389883 -1.02108,-1.68863 -1.71824,-2.886129 -0.69716,-1.197497 -1.29907,-2.177128 -1.33791,-2.177128 z m 0.13488,6.098336 c 0.55383,0.04371 1.07057,0.9401 3.46749,5.243608 0.83759,1.503835 2.50054,4.420446 3.6959,6.481258 1.19536,2.060812 2.37856,4.111247 2.62929,4.556828 0.56642,1.006579 9.33426,16.22434 10.03556,17.418058 0.19633,0.334184 1.43011,2.476312 2.74143,4.759916 2.96119,5.156745 5.96376,10.369353 6.39186,11.09648 0.71749,1.21865 7.70741,13.363335 11.99513,20.841105 1.28948,2.24885 2.57709,4.45744 2.86133,4.90771 0.28425,0.45027 0.51676,0.8502 0.51676,0.88884 0,0.0387 0.97162,1.74907 2.15904,3.80132 1.18742,2.05223 3.18097,5.50896 4.43022,7.68118 1.24925,2.1722 3.47838,6.04566 4.95371,8.60774 1.47532,2.5621 3.41214,5.93407 4.30413,7.4936 0.89198,1.55953 2.24852,3.90059 3.01428,5.20227 1.40798,2.3933 1.58952,2.92493 1.14929,3.36517 -0.3541,0.35411 -128.581177,0.35411 -128.93528,0 -0.496132,-0.49613 -0.121316,-1.51362 1.472262,-3.99976 0.481023,-0.75046 1.991269,-3.3158 3.356384,-5.70042 2.571391,-4.4918 4.328927,-7.54542 8.904883,-15.47503 3.10455,-5.37983 2.817254,-4.88136 5.31027,-9.21546 1.05725,-1.83802 2.972971,-5.16492 4.257621,-7.39283 1.28465,-2.2279 3.516455,-6.10135 4.959388,-8.60774 1.442932,-2.506393 3.468472,-6.01513 4.501017,-7.797459 1.032547,-1.782321 2.060262,-3.559749 2.284098,-3.949629 0.223835,-0.389889 1.116482,-1.942943 1.983342,-3.451469 0.866859,-1.50852 1.82495,-3.19477 2.129069,-3.747058 0.304116,-0.552281 0.621984,-1.09525 0.706416,-1.206645 0.08443,-0.111395 1.222329,-2.071169 2.528528,-4.354773 1.306201,-2.283605 2.536162,-4.425216 2.733684,-4.759399 0.390075,-0.659963 3.490271,-6.065098 5.343859,-9.316744 0.635005,-1.113954 1.237903,-2.161964 1.339454,-2.329057 0.450797,-0.74175 7.050522,-12.198986 9.825245,-17.05684 1.27297,-2.228638 2.32002,-3.84008 2.54144,-3.910356 0.15536,-0.04931 0.28509,-0.0845 0.4129,-0.07441 z m -0.12816,2.712496 c -0.0773,0 -0.86945,1.275952 -1.76061,2.835486 -0.89118,1.559532 -1.78227,3.109014 -1.97973,3.443201 -0.61858,1.046875 -4.675846,8.106817 -7.390765,12.860713 -1.431385,2.506392 -3.138385,5.456825 -3.793567,6.556189 l -1.191141,1.998845 0.540018,1.545642 c 0.297046,0.850049 0.706344,2.00101 0.909505,2.557983 1.015531,2.784144 1.627418,4.457902 2.406572,6.582544 1.654719,4.512193 1.7419,5.151457 0.687813,5.026567 -0.495433,-0.05871 -0.616811,-0.272704 -1.417484,-2.494939 -0.481628,-1.336742 -1.049298,-2.886228 -1.261939,-3.4432 -0.21264,-0.556981 -0.818538,-2.243225 -1.346171,-3.747058 -0.52763,-1.503835 -1.086728,-3.048857 -1.242301,-3.433899 l -0.28267,-0.700216 -0.428398,0.700216 c -0.235467,0.385042 -1.658906,2.841827 -3.163631,5.459615 -1.504724,2.617788 -3.967404,6.901528 -5.472534,9.519315 -1.505128,2.617789 -3.601159,6.263297 -4.657597,8.101315 -1.056435,1.838026 -2.212254,3.842864 -2.568836,4.455542 -1.26937,2.181016 -4.46169,7.708636 -4.883423,8.455816 -0.778279,1.37888 -4.221388,7.36801 -6.957198,12.1021 -1.480622,2.56209 -2.849552,4.93164 -3.042191,5.26583 -3.039871,5.2735 -5.323418,9.24418 -7.222298,12.55738 -1.276873,2.2279 -2.409841,4.18716 -2.517676,4.35425 -0.107832,0.16709 -1.104676,1.89893 -2.214852,3.84835 l -2.018481,3.54448 1.264005,0.11162 c 0.694948,0.0614 10.035595,0.12936 20.757389,0.1509 l 19.494418,0.0393 0.759126,-1.23041 c 1.790247,-2.89821 1.967263,-3.12281 2.461866,-3.12281 0.264766,0 0.578043,0.15342 0.696081,0.34055 0.17059,0.27044 0.0029,0.68573 -0.818038,2.0252 -0.568034,0.92683 -0.990975,1.75354 -0.939994,1.83709 0.05098,0.0836 2.035285,0.15193 4.410067,0.15193 3.216886,0 4.366864,-0.0645 4.509802,-0.25321 0.105516,-0.13924 0.489321,-1.34681 0.852661,-2.68356 0.833462,-3.06627 1.447668,-4.99123 1.696537,-5.31647 0.256517,-0.33526 0.847582,-0.32253 1.135852,0.0248 0.17735,0.2137 0.02023,1.02549 -0.675931,3.49385 -0.498734,1.76847 -0.998577,3.47969 -1.111044,3.80235 -0.112458,0.32266 -0.16408,0.65188 -0.114721,0.73174 0.148383,0.2401 3.491929,0.24452 3.640089,0.005 0.0734,-0.11873 0.26378,-1.42233 0.42323,-2.89647 0.5492,-5.07749 0.9293,-7.74036 1.1405,-7.99486 0.45839,-0.55231 1.48273,-0.0161 1.25367,0.65629 -0.038,0.1114 -0.25454,1.9344 -0.48111,4.05092 -0.22657,2.1165 -0.48832,4.38057 -0.58136,5.03121 -0.19344,1.35281 -0.14216,1.40776 1.21337,1.31052 l 0.88418,-0.0631 0.0594,-1.71152 c 0.0622,-1.78955 0.2392,-2.23811 0.88315,-2.23811 0.52303,0 0.6179,0.33312 0.65009,2.28204 l 0.0274,1.66759 1.01285,0.0445 c 1.30919,0.0575 1.64521,-0.0532 1.32654,-0.43719 -0.1309,-0.15772 -0.25506,-0.99983 -0.27595,-1.8712 l -0.0377,-1.5844 0.55811,-0.0641 c 0.32585,-0.0375 0.60031,0.0468 0.65991,0.20257 0.23436,0.61231 0.44518,3.11431 0.2775,3.29438 -0.0985,0.10583 -0.17932,0.26752 -0.17932,0.35915 0,0.0916 1.66346,0.14198 3.69642,0.11162 l 3.69641,-0.0553 -0.0558,-0.50643 c -0.0531,-0.48209 -0.58085,-2.33643 -1.5105,-5.30613 -0.45408,-1.45053 -0.33251,-1.98541 0.45217,-1.98541 0.55634,0 0.70766,0.3185 1.58543,3.34191 0.45276,1.55954 0.95098,3.20021 1.10743,3.64578 l 0.28473,0.81028 4.22765,0.0548 c 2.32528,0.0302 4.34788,0.009 4.49481,-0.0475 0.2111,-0.081 0.2172,-0.19602 0.0289,-0.54777 -0.20477,-0.38262 -0.17047,-0.50007 0.24391,-0.83561 l 0.48214,-0.39016 0.82166,0.9338 0.82165,0.93379 h 18.67328 c 10.27018,0 18.67276,-0.0762 18.67276,-0.16898 0,-0.0927 -0.98775,-1.89247 -2.19521,-3.99976 -6.97723,-12.17689 -8.37839,-14.58853 -8.59896,-14.79909 -0.13417,-0.12809 -0.97332,-0.4205 -1.86449,-0.65009 -7.04087,-1.814 -7.40433,-1.96325 -6.85953,-2.81327 0.29044,-0.45317 0.73669,-0.41817 3.21428,0.25115 4.19213,1.13252 4.20402,1.13446 4.09587,0.72088 -0.0529,-0.20235 -0.7355,-1.44954 -1.5167,-2.7714 -0.78119,-1.32185 -2.14879,-3.6789 -3.03909,-5.23844 l -1.61851,-2.83601 -4.91959,-0.0543 c -3.32561,-0.0367 -5.01007,-0.12934 -5.19917,-0.28628 -0.15386,-0.12768 -0.25206,-0.46801 -0.21859,-0.75603 l 0.061,-0.52348 4.60127,-0.10129 4.60127,-0.10128 -1.73168,-3.03703 c -0.95246,-1.6705 -1.82309,-3.1474 -1.93477,-3.28197 -0.11168,-0.13457 -0.35789,-0.54547 -0.54673,-0.9126 -0.96406,-1.87434 -4.57305,-8.059978 -4.70256,-8.059978 -0.0822,0 -1.17696,0.463748 -2.43293,1.030428 -2.51945,1.13675 -3.152,1.27123 -3.49539,0.74207 -0.35569,-0.54811 0.0144,-0.92188 1.5906,-1.60403 2.09252,-0.905643 3.54449,-1.588442 3.54449,-1.667601 0,-0.151836 -1.05456,-1.945789 -1.19476,-2.032435 -0.0822,-0.05083 -0.69007,0.267124 -1.35082,0.706417 -1.38008,0.917551 -1.5145,0.9439 -2.00815,0.398426 -0.45922,-0.507423 -0.26076,-0.776755 1.30431,-1.770435 0.61751,-0.392055 1.15608,-0.742728 1.19683,-0.779281 0.0407,-0.03651 -0.31507,-0.731834 -0.79065,-1.545125 -0.47559,-0.813282 -1.40924,-2.435297 -2.07481,-3.604948 -0.66557,-1.169651 -1.30587,-2.246605 -1.42265,-2.393135 -0.16403,-0.205818 -1.27971,0.800036 -4.90513,4.422985 -3.87309,3.870473 -4.77791,4.677661 -5.17952,4.620907 -0.33434,-0.04723 -0.50827,-0.22063 -0.55552,-0.555005 -0.0568,-0.402091 0.77931,-1.335303 4.809,-5.367631 l 4.87722,-4.880322 -1.38286,-2.419491 c -0.76061,-1.330656 -1.46605,-2.445997 -1.56786,-2.478401 -0.15924,-0.05067 -2.29971,3.30147 -3.61115,5.655468 -0.43705,0.784509 -1.02581,0.988519 -1.49602,0.518315 -0.4682,-0.468191 -0.46376,-0.47596 3.32536,-6.515365 0.99993,-1.593757 1.08414,-1.138422 -0.8108,-4.381128 -0.61842,-1.058248 -2.01615,-3.494041 -3.10574,-5.412589 -1.08959,-1.918555 -2.06783,-3.461636 -2.17403,-3.429248 -0.10621,0.03238 -0.34705,0.645158 -0.53537,1.361674 -0.6212,2.363521 -0.77284,2.649003 -1.37097,2.579687 -0.49579,-0.05749 -0.53154,-0.127586 -0.50282,-1.001489 0.0289,-0.881182 0.58909,-2.949794 1.17151,-4.326351 0.2902,-0.685881 1.1201,0.83238 -11.28613,-20.658687 -1.28612,-2.227904 -2.4021,-4.050399 -2.47944,-4.050399 z m 0.76481,6.400126 c 0.14181,0.02822 0.26731,0.123128 0.44184,0.297656 0.27382,0.273819 0.31832,1.091848 0.31832,5.857007 0,3.046301 -0.0555,5.682871 -0.12299,5.859074 -0.14489,0.377575 -0.90694,0.424748 -1.25418,0.07752 -0.17774,-0.17774 -0.24288,-1.804491 -0.24288,-6.054411 0,-5.112389 0.0385,-5.826372 0.32039,-5.934521 0.23991,-0.09206 0.3977,-0.130537 0.5395,-0.10232 z m -6.15879,12.554273 c 0.0874,0.007 0.18716,0.02795 0.30024,0.05633 0.4732,0.118766 0.50617,0.224248 0.63045,2.000395 0.0722,1.031265 0.22791,2.467464 0.34571,3.191536 0.11781,0.724065 0.18248,1.635319 0.14366,2.025199 -0.0627,0.629795 -0.14215,0.715775 -0.71158,0.771013 -0.4782,0.04639 -0.66751,-0.03083 -0.74466,-0.303858 -0.0569,-0.201293 -0.214763,-1.94309 -0.350883,-3.870564 -0.23298,-3.299349 -0.22462,-3.918831 0.387063,-3.870048 z m 12.59044,2.904732 c 0.11733,-0.0015 0.24641,0.01544 0.38499,0.05168 0.51721,0.135255 0.5498,0.720528 0.11989,2.172478 -0.16782,0.566763 -0.48828,1.800586 -0.7121,2.741951 -0.47745,2.008057 -0.74706,2.317962 -1.52342,1.750281 -0.38201,-0.279329 -0.37613,-0.343519 0.28318,-3.088701 0.37032,-1.541887 0.71379,-2.954174 0.76378,-3.138826 0.0848,-0.313389 0.33169,-0.484287 0.68368,-0.488859 z m -6.93187,1.388029 c 0.3083,-0.0018 0.62624,0.221906 0.72967,0.607715 0.15352,0.572626 0.15481,1.93939 0.003,2.506307 -0.14744,0.549639 -0.8016,0.736296 -1.19683,0.341064 -0.38696,-0.386956 -0.40956,-2.677691 -0.0315,-3.194637 0.12957,-0.177196 0.31111,-0.259378 0.4961,-0.260449 z m -9.547746,5.200716 c 0.502461,0.0029 0.547766,0.436943 1.88464,7.19801 0.220264,1.113954 0.723314,3.516026 1.117763,5.338176 0.39446,1.822149 0.71675,3.57346 0.71675,3.891752 0,0.707782 -0.58674,1.106003 -1.085722,0.736906 -0.209729,-0.155135 -0.474788,-0.989878 -0.720886,-2.270663 -0.214048,-1.113954 -0.857531,-4.257988 -1.430404,-6.98717 -1.71186,-8.155252 -1.688523,-7.89926 -0.730704,-7.89926 0.09554,0 0.176783,-0.0082 0.248563,-0.0077 z m 9.650056,3.869015 c 0.21494,0.02094 0.41222,0.137133 0.51935,0.341581 0.10216,0.194941 0.2014,1.277274 0.22066,2.405021 0.0283,1.656038 -0.028,2.113698 -0.29404,2.3797 -0.43897,0.438979 -0.84733,0.415738 -1.10329,-0.06253 h -5.2e-4 c -0.29936,-0.559353 -0.27176,-4.528489 0.0336,-4.833813 0.1768,-0.176795 0.40932,-0.250896 0.62425,-0.22996 z m 4.72581,0.09095 c 0.0842,-0.0045 0.17679,0.01302 0.28112,0.04031 0.54787,0.143278 0.64914,0.630503 0.43925,2.114082 -0.10009,0.70747 -0.18972,1.514161 -0.19947,1.792656 -0.0243,0.696399 -0.58569,5.003752 -0.76533,5.873543 -0.20473,0.991268 -0.54921,1.207203 -1.1839,0.743107 -0.35335,-0.258377 -0.3548,-0.387791 -0.0362,-3.189986 0.70957,-6.240467 0.87514,-7.342033 1.46451,-7.37371 z m 5.93039,0.535885 c 0.35744,-0.0076 0.74276,0.155685 0.79478,0.429948 0.0376,0.198369 -0.16639,1.114684 -0.45371,2.036568 -0.28731,0.921875 -0.52245,1.857906 -0.52245,2.079976 0,0.819889 -0.91785,1.188196 -1.42834,0.573092 -0.21841,-0.263161 -0.16826,-0.682981 0.29714,-2.480986 0.30811,-1.190373 0.65809,-2.282882 0.77773,-2.427759 0.11589,-0.140332 0.32039,-0.206304 0.53485,-0.210839 z m -15.21457,0.811836 c 0.53939,0.01831 0.65209,0.456169 0.70073,2.102714 0.0503,1.703805 0.0285,1.816494 -0.36897,1.873271 -0.23253,0.03322 -0.53113,-0.06948 -0.66301,-0.22841 -0.13274,-0.159934 -0.26013,-1.045719 -0.28577,-1.984375 -0.0426,-1.561184 -0.0143,-1.700007 0.35863,-1.747697 0.0955,-0.01222 0.18133,-0.01812 0.25839,-0.0155 z m 20.89019,0.593246 c 0.12446,-0.01948 0.26088,0.03068 0.44752,0.08992 0.36012,0.114295 0.41087,0.25305 0.32608,0.885217 -0.0937,0.698435 -0.92306,2.832836 -1.73891,4.474146 -0.38409,0.772719 -1.02926,1.011274 -1.42937,0.529166 -0.20222,-0.243655 -0.0974,-0.673646 0.5581,-2.288232 1.19639,-2.946785 1.46321,-3.631788 1.83658,-3.690214 z m -34.4873,2.609143 c 0.353879,0.04432 0.728847,0.622482 1.391647,1.979207 2.878445,5.892063 2.936582,6.043232 2.488737,6.491077 -0.552758,0.552755 -0.929011,0.245081 -1.744597,-1.42782 -3.146007,-6.452955 -3.097449,-6.327814 -2.63033,-6.794934 0.177306,-0.177307 0.333689,-0.267676 0.494543,-0.24753 z m -4.573881,3.548621 c 0.367968,0 0.781446,0.43161 1.843815,1.92443 1.504168,2.113618 1.645913,2.699423 0.675928,2.792077 -0.354686,0.03391 -0.692057,-0.06259 -0.810286,-0.23151 -2.266529,-3.238818 -2.602683,-3.820137 -2.397787,-4.144967 0.11788,-0.186871 0.427482,-0.34003 0.68833,-0.34003 z m 26.230961,3.756359 c 0.25686,0.01255 0.49676,0.116259 0.56896,0.304375 0.12284,0.320106 -0.0759,2.44435 -0.56741,6.066296 -0.15119,1.113953 -0.2298,2.100665 -0.17467,2.192631 0.0551,0.09197 0.43275,0.143029 0.83871,0.113688 0.40595,-0.02932 1.05705,0.005 1.44694,0.07545 0.38988,0.07066 1.18716,0.174591 1.77199,0.230993 0.93617,0.09029 1.0635,0.05775 1.0635,-0.271818 0,-0.205871 0.25966,-0.999104 0.57722,-1.762683 0.31755,-0.763587 0.9627,-2.315702 1.43351,-3.448885 0.47081,-1.133183 0.99202,-2.112693 1.15858,-2.176611 0.16656,-0.06392 0.48657,-0.01783 0.71107,0.102319 0.48852,0.261455 0.42484,0.631047 -0.4687,2.717147 -0.97999,2.287899 -1.1091,2.59618 -1.39837,3.341915 -0.15124,0.389881 -0.3902,0.934416 -0.53123,1.210262 -0.14104,0.275846 -0.19069,0.557737 -0.11007,0.626318 0.0806,0.06859 0.78499,0.288824 1.56476,0.489376 0.77976,0.200559 1.50867,0.426971 1.62006,0.503328 0.1114,0.0764 0.62959,0.296701 1.15135,0.489376 1.20591,0.445318 3.11156,1.66643 4.92475,3.15588 2.08805,1.715209 4.01206,2.573439 6.612,2.948659 0.51762,0.0747 1.24154,0.31829 1.60869,0.54157 0.60963,0.37073 0.63508,0.42403 0.293,0.61546 -0.22734,0.12723 -1.04859,0.16237 -2.08979,0.0889 -0.94352,-0.0666 -1.68117,-0.0896 -1.63918,-0.0506 2.08062,1.92955 6.67506,3.92807 10.10171,4.39405 0.8355,0.11362 1.86632,0.29682 2.29082,0.4067 0.67326,0.17425 0.76391,0.2669 0.709,0.72863 -0.0674,0.5674 0.0207,0.54435 -6.40891,1.69551 -1.47915,0.26483 -1.42493,0.50246 0.18551,0.81132 1.30318,0.24992 1.9704,0.24588 5.04362,-0.03 2.11569,-0.18994 2.35016,-0.17705 2.58279,0.14108 0.61789,0.84502 0.0504,1.0955 -3.34088,1.47381 l -2.97811,0.33228 -0.75034,1.46606 c -1.08159,2.11319 -3.66197,5.27721 -4.80539,5.89215 -0.29042,0.15618 -0.89284,0.57237 -1.33842,0.92501 -0.44558,0.35265 -1.7088,1.1779 -2.80707,1.83348 -1.85564,1.10765 -2.37425,1.56557 -2.09186,1.84795 0.0623,0.0623 0.61493,-0.12399 1.22783,-0.41393 0.61288,-0.28994 1.18949,-0.5271 1.28158,-0.5271 0.0921,0 0.48509,-0.16876 0.87333,-0.37517 0.38822,-0.2064 1.07061,-0.49177 1.51619,-0.63407 0.44558,-0.14229 0.90145,-0.32519 1.01285,-0.4067 0.11139,-0.0815 1.11382,-0.44306 2.22777,-0.80305 1.11394,-0.35999 2.38991,-0.78064 2.83549,-0.93482 1.94747,-0.67387 4.94153,-1.30173 6.20634,-1.30173 0.82407,0 1.3847,-0.0897 1.43092,-0.22841 0.0975,-0.29262 4.53811,0.11378 4.94647,0.45268 0.35719,0.29645 0.35563,0.87651 -0.004,1.17461 -0.28561,0.23704 -0.85907,0.19953 -3.30161,-0.21498 -1.16553,-0.19779 -1.33157,-0.17578 -2.36729,0.3142 -0.61262,0.28981 -1.27922,0.52755 -1.48105,0.52813 -0.74122,0.002 -5.07519,1.01488 -6.74688,1.57665 -3.53535,1.18803 -5.2617,1.94952 -5.26376,2.3213 -0.002,0.37791 -0.32789,0.49014 -0.4408,0.15193 -0.0793,-0.23738 -1.86726,0.39529 -2.24637,0.79478 -0.20639,0.21751 -0.0696,0.24027 0.76119,0.12713 0.55698,-0.0759 1.28587,-0.21887 1.62006,-0.31781 0.33418,-0.0989 1.24596,-0.32233 2.02572,-0.49661 0.77976,-0.17428 1.62263,-0.37191 1.87327,-0.43873 0.83371,-0.22228 0.48033,0.31201 -0.55294,0.8356 -1.17224,0.59403 -2.70522,1.00543 -5.67511,1.52342 -1.16965,0.20401 -2.94708,0.65014 -3.94962,0.99168 -1.00256,0.34154 -1.97199,0.62239 -2.15439,0.62373 -0.1824,10e-4 -1.276,0.44251 -2.43034,0.9803 -2.76368,1.28755 -4.04972,1.78282 -5.64307,2.173 -2.52713,0.61882 -2.6404,0.69412 -0.91157,0.60771 0.89116,-0.0446 2.39506,-0.2711 3.34192,-0.50333 3.4778,-0.85296 7.06524,-0.76825 8.30387,0.19586 0.81507,0.63441 0.22203,0.79912 -2.37555,0.6599 -1.74063,-0.0933 -2.28255,-0.0633 -2.28255,0.12713 0,0.13737 0.54653,1.04832 1.21491,2.02416 0.66837,0.97585 1.21543,1.8735 1.21543,1.99471 0,0.24374 -0.55759,0.85858 -0.77411,0.8537 -0.0755,-0.001 -0.23726,-0.0701 -0.35967,-0.15193 -0.12244,-0.0818 -0.82741,-1.02465 -1.56631,-2.09548 -0.7389,-1.07083 -1.4592,-2.03848 -1.60042,-2.15026 -0.17583,-0.1392 -0.99077,-0.0559 -2.58589,0.26407 -2.72704,0.5471 -4.91213,0.60378 -7.64708,0.19895 -1.08538,-0.16064 -2.85183,-0.35447 -3.92586,-0.43098 -1.93514,-0.13786 -1.95401,-0.13488 -2.09238,0.34262 -0.36999,1.27672 -0.78644,2.18783 -1.04541,2.2872 -0.15723,0.0603 -0.46287,-0.067 -0.679033,-0.28319 -0.36789,-0.36789 -0.37402,-0.45523 -0.0987,-1.36271 0.494353,-1.62927 0.597203,-1.5412 -2.195216,-1.88102 -4.099588,-0.49889 -7.26227,-1.74474 -11.266496,-4.439 -1.337974,-0.90026 -2.521266,-1.63711 -2.629297,-1.63711 -0.108032,0 -2.046892,0.82661 -4.308781,1.83658 -2.261885,1.00997 -4.294763,1.91705 -4.517553,2.01589 -0.22279,0.0988 -1.391893,0.63889 -2.597775,1.20045 -1.78213,0.8299 -2.267941,0.98102 -2.594673,0.80615 -0.272896,-0.14604 -0.381613,-0.38071 -0.338998,-0.73071 0.05515,-0.45289 0.419809,-0.67444 2.999817,-1.82366 1.615231,-0.71948 3.600785,-1.62053 4.412651,-2.00246 0.811865,-0.38193 1.531255,-0.69453 1.598352,-0.69453 0.0671,0 0.496165,-0.17906 0.953947,-0.39791 0.457781,-0.21885 1.174418,-0.53331 1.592151,-0.69866 0.417732,-0.16534 0.759126,-0.38175 0.759126,-0.48111 0,-0.0994 -1.116394,-0.62829 -2.480985,-1.17512 l -2.480986,-0.99426 -3.139343,0.0233 c -2.451843,0.0181 -3.530753,0.11803 -4.927348,0.45578 -2.218572,0.53653 -2.696056,0.54163 -2.968811,0.032 -0.361809,-0.67605 0.126213,-1.17272 1.30328,-1.32601 0.562653,-0.0733 1.797676,-0.29853 2.744535,-0.50075 0.946859,-0.20222 2.382371,-0.47586 3.189986,-0.60771 0.807616,-0.13186 1.466816,-0.29963 1.464511,-0.37311 -0.0023,-0.0735 -0.640334,-0.44552 -1.417485,-0.8263 -2.438909,-1.19495 -2.707251,-2.02685 -0.523482,-1.62316 1.187419,0.2195 3.97104,1.24466 4.636926,1.70791 0.221543,0.15411 0.713689,0.21253 1.265039,0.15037 0.873197,-0.0984 0.912024,-0.0784 1.195276,0.59945 0.215356,0.51542 0.603946,0.87078 1.469161,1.34462 1.955699,1.07105 2.983419,1.68028 3.303157,1.95854 0.167093,0.14541 1.463249,1.04208 2.880445,1.99264 5.708865,3.82913 8.850399,4.66601 17.324522,4.61574 4.91711,-0.0292 6.93626,-0.23512 9.26921,-0.94671 2.39169,-0.72952 3.1738,-1.20761 3.09438,-1.89239 -0.0707,-0.61012 0.0184,-0.60938 -2.59312,-0.0233 -2.81381,0.6315 -5.44056,0.86034 -8.3044,0.72399 -3.39778,-0.16177 -8.959027,-1.29591 -11.068583,-2.25723 -0.351021,-0.15995 -0.743983,-0.29094 -0.872815,-0.29094 -0.605051,0 -6.776155,-2.80601 -12.321728,-5.60275 -3.375023,-1.70209 -6.785047,-3.28771 -7.577832,-3.52382 -0.792789,-0.2361 -1.777357,-0.64151 -2.187981,-0.90072 -0.709248,-0.44773 -0.937869,-0.47264 -4.571814,-0.49558 -2.103896,-0.0133 -3.90281,-0.10149 -3.997172,-0.19585 -0.09436,-0.0944 -0.14115,-0.38712 -0.103869,-0.65061 l 0.0677,-0.47904 3.943429,-0.0553 c 3.823869,-0.0535 3.958348,-0.0692 4.455541,-0.53175 0.685736,-0.63793 2.148262,-1.08245 4.380612,-1.33119 2.081501,-0.23193 3.907397,-0.7607 5.361946,-1.55236 1.465545,-0.79766 1.675118,-1.08432 1.3224,-1.81229 -0.157335,-0.32472 -0.349304,-1.16 -0.42633,-1.85622 -0.07703,-0.69622 -0.162379,-1.26607 -0.189653,-1.26607 -0.02727,0 -1.180039,0.57661 -2.562117,1.28106 -3.337901,1.70133 -4.487292,2.11889 -7.373711,2.68046 -2.407088,0.46831 -2.434471,0.46936 -2.829284,0.0796 -0.360556,-0.35597 -0.36847,-0.42373 -0.08372,-0.70849 0.173158,-0.17315 0.899387,-0.45045 1.613855,-0.61598 1.608368,-0.37265 4.877306,-1.46662 5.137154,-1.71927 0.11806,-0.11479 -0.556248,-0.18707 -1.745113,-0.18707 -2.017513,0 -3.85778,-0.50733 -4.096391,-1.12913 -0.160512,-0.41829 0.06672,-0.46015 1.449524,-0.26769 1.184974,0.16494 5.835505,-0.0704 6.072498,-0.30747 0.0556,-0.0556 -0.252157,-0.25137 -0.68368,-0.4346 -2.024995,-0.85984 -2.173821,-1.02857 -1.502233,-1.70016 0.379689,-0.37969 0.475575,-0.394 0.974617,-0.14417 0.304452,0.1524 1.441299,0.58672 2.526461,0.96531 l 1.973006,0.68885 0.929659,-0.49299 c 0.511335,-0.27096 1.4465,-0.8268 2.077909,-1.23507 0.631407,-0.40827 1.541192,-0.98876 2.022099,-1.29036 l 0.874365,-0.54829 -1.026293,-0.83509 c -1.031694,-0.83924 -1.232773,-1.28542 -0.782898,-1.735293 0.419654,-0.419651 0.845457,-0.271612 1.919779,0.668173 0.573035,0.50128 1.110058,0.91158 1.193726,0.91158 0.14868,0 0.860997,-0.42736 3.5295,-2.118222 0.724068,-0.458798 1.758557,-1.058581 2.299084,-1.332735 0.540529,-0.274162 1.025414,-0.60338 1.077454,-0.731738 0.05204,-0.128366 -0.10426,-0.675421 -0.347266,-1.21543 -0.625407,-1.389791 -1.257919,-2.803336 -1.921846,-4.293278 -0.630852,-1.415719 -0.542663,-1.954403 0.320911,-1.954403 0.413707,0 0.644427,0.380235 1.840714,3.038058 1.869306,4.153077 1.541216,3.802299 3.00085,3.212724 2.123106,-0.85756 4.250456,-1.302654 6.834216,-1.429887 1.96366,-0.0967 2.49565,-0.185997 2.59105,-0.434599 0.0661,-0.17206 0.31099,-2.004039 0.54415,-4.071069 0.23315,-2.067023 0.51387,-3.872398 0.62374,-4.011642 0.14024,-0.177751 0.4139,-0.256459 0.67076,-0.243913 z m -7.18302,0.01395 c 0.0662,-0.0021 0.13305,0.001 0.1974,0.01033 0.40371,0.05848 0.50072,0.248757 0.70693,1.384412 0.43956,2.42075 0.56575,4.891866 0.25942,5.085994 -0.39719,0.251694 -0.71217,0.218521 -1.04025,-0.109554 -0.36907,-0.369074 -0.90044,-5.922389 -0.59583,-6.22701 0.0832,-0.08314 0.27379,-0.137775 0.47233,-0.144177 z m -20.573429,2.665987 c 0.255028,0.02322 0.600681,0.345998 1.450558,1.260388 1.691793,1.820152 1.950165,2.213453 1.788004,2.724382 -0.273488,0.861677 -1.00145,0.501748 -2.52336,-1.247986 -1.487861,-1.710578 -1.677079,-2.239263 -0.955497,-2.671155 0.08018,-0.04799 0.155286,-0.07337 0.240295,-0.06563 z m 6.800619,1.209745 c 0.265409,0.03731 0.551609,0.23803 0.820105,0.59738 1.117454,1.495605 1.441087,2.181515 1.179256,2.497005 -0.531449,0.640358 -1.100504,0.347482 -2.018482,-1.038696 -0.692983,-1.04643 -0.840267,-1.409777 -0.676444,-1.671216 0.185214,-0.295572 0.430155,-0.421782 0.695565,-0.384473 z m 44.61329,3.55999 c 0.0512,0.0041 0.0959,0.01882 0.13798,0.04134 0.9015,0.482468 0.49978,1.033417 -2.56574,3.518132 -1.62764,1.319266 -3.11542,2.439481 -3.30574,2.489253 -0.19031,0.04976 -0.46085,-0.04804 -0.60151,-0.217558 -0.14067,-0.169487 -0.22566,-0.464519 -0.18862,-0.655257 0.0371,-0.190746 1.46253,-1.471209 3.16776,-2.845821 2.32226,-1.872009 2.99773,-2.358488 3.35587,-2.330089 z M 85.354723,93.14783 c 0.405737,-0.01589 0.96816,0.382911 1.634526,1.169437 2.950446,3.48236 2.875936,3.375768 2.655652,3.787366 -0.441563,0.825072 -1.038643,0.470589 -2.981214,-1.769918 -1.82882,-2.109309 -2.095623,-2.596596 -1.660363,-3.031856 0.09845,-0.09845 0.216154,-0.149734 0.351399,-0.155029 z m -5.297867,0.968416 c 0.359962,0.0078 0.815424,0.351552 1.656229,1.134814 0.939609,0.875296 1.047284,1.053692 0.853695,1.415418 -0.365723,0.683356 -1.03733,0.486297 -2.333708,-0.684196 l -1.21543,-1.097091 0.432015,-0.44235 c 0.209687,-0.214904 0.391221,-0.33128 0.607199,-0.326595 z m 26.587014,1.978174 c -5.67534,0.03296 -8.111007,1.016979 -15.049734,5.21829 -2.33358,1.41295 -3.114622,2.17516 -3.455603,3.37033 -0.114854,0.40258 -0.29995,0.70231 -0.411345,0.66611 -0.231507,-0.0752 -0.236264,-0.70749 -0.0093,-1.23041 0.107416,-0.24745 0.06305,-0.3545 -0.146761,-0.3545 -0.618128,0 -1.504161,3.032 -1.025778,3.51038 0.1872,0.1872 0.02995,0.27212 2.227255,-1.1958 1.884691,-1.25907 6.625604,-3.73258 7.154602,-3.73258 0.134703,0 0.532125,-0.13277 0.88315,-0.29559 0.963802,-0.44708 4.268934,-1.26865 6.207894,-1.54306 3.60476,-0.510171 9.61429,-0.14351 12.45608,0.76016 1.12012,0.35619 2.73508,1.07581 5.42655,2.41846 0.97928,0.4885 1.87202,0.88831 1.98386,0.88831 0.32331,0 -2.14608,-3.12846 -2.99517,-3.7946 -1.03996,-0.815866 -3.09806,-1.875833 -3.64371,-1.876369 -0.24406,-1.99e-4 -0.50874,-0.10522 -0.58807,-0.233578 -0.17346,-0.28066 1.12563,-0.109646 2.33784,0.307992 1.97278,0.679681 2.89109,1.500525 5.39605,4.821925 0.70277,0.93182 2.65021,2.52777 2.84581,2.33216 0.0339,-0.0339 -0.044,-0.42109 -0.17311,-0.86041 -0.32275,-1.09885 -0.3082,-1.02212 -0.33642,-1.79989 -0.02,-0.55079 -0.22139,-0.88163 -0.95549,-1.56993 -2.60613,-2.443516 -5.70522,-4.235737 -8.48785,-4.90823 -0.77977,-0.188449 -1.73659,-0.432866 -2.12648,-0.54312 -0.38988,-0.110253 -2.57761,-0.253266 -4.86121,-0.318326 -0.96556,-0.02751 -1.8423,-0.04243 -2.65306,-0.03772 z m -30.311335,2.710946 c 0.47214,-0.008 1.30942,0.405251 2.922819,1.346684 1.40007,0.81696 2.594604,1.61193 2.654618,1.7663 0.134744,0.34663 -0.204333,0.9172 -0.58446,0.98341 -0.155154,0.027 -1.314736,-0.52948 -2.576587,-1.23662 -2.558288,-1.43366 -3.151523,-1.916952 -2.96106,-2.41329 0.109408,-0.285114 0.261386,-0.441657 0.54467,-0.446484 z m 39.402245,4.563024 c -0.14726,0 -0.36479,0.0643 -0.5643,0.19327 -0.24698,0.15963 -0.22073,0.19695 0.14004,0.19948 0.24407,0.002 0.50012,-0.0881 0.56896,-0.19948 0.0797,-0.12893 0.003,-0.19327 -0.1447,-0.19327 z m 11.03136,0.47956 c -0.15846,0.15847 0.32679,1.90377 0.77153,2.77554 0.41995,0.82316 2.21589,2.0197 2.21589,1.4764 0,-0.066 -0.24054,-0.79712 -0.53434,-1.62471 -0.46508,-1.31006 -0.65191,-1.58375 -1.44229,-2.11718 -0.49931,-0.33697 -0.95412,-0.56671 -1.01079,-0.51005 z m 12.06025,0.0889 c 0.49184,-0.0181 0.64854,0.21714 0.64854,0.74776 0,0.35978 -0.17253,0.5216 -0.75913,0.71055 -0.41773,0.13455 -0.86026,0.32391 -0.98289,0.42065 -0.12263,0.0967 -0.64176,0.23314 -1.15393,0.30334 -0.89067,0.12208 -0.93757,0.10317 -1.07177,-0.4315 -0.16867,-0.67203 0.0209,-0.80706 2.03399,-1.45366 0.57451,-0.18452 0.99009,-0.2863 1.28519,-0.29714 z m -41.718379,0.65578 c -0.105665,0.0132 -0.165881,0.0691 -0.165881,0.17002 0,0.10365 0.205148,0.22819 0.455786,0.27647 0.892451,0.17189 1.056395,0.12472 0.557072,-0.16072 -0.36747,-0.21006 -0.670868,-0.30776 -0.846977,-0.28577 z m -11.340393,0.2527 c -0.08695,0.0191 -0.2034,0.0769 -0.350883,0.16898 -0.825809,0.51573 -0.994665,1.81078 -0.429948,3.29283 l 0.225826,0.59324 0.422713,-0.42271 c 0.367831,-0.36783 0.393184,-0.50667 0.196371,-1.07125 -0.166381,-0.47728 -0.166061,-0.88585 0,-1.54565 0.196173,-0.77907 0.196774,-1.07269 -0.06408,-1.01544 z m 33.421732,0.11627 c -0.29202,0.006 -0.68198,0.0612 -1.24333,0.16692 -3.19779,0.60231 -4.3956,0.90021 -4.3956,1.09347 0,0.1113 0.15955,0.15313 0.3545,0.0925 0.19494,-0.0606 1.35692,-0.25561 2.58227,-0.43305 4.20216,-0.60849 3.85427,-0.52629 3.35742,-0.7922 -0.1692,-0.0906 -0.36324,-0.1337 -0.65526,-0.12764 z m -23.887947,0.30748 c -0.130573,0.005 -0.244439,0.0182 -0.33383,0.0419 -0.788273,0.20863 -0.498606,0.44469 0.709001,0.57774 0.640519,0.0706 1.301036,0.15786 1.468127,0.19379 0.64244,0.1381 0.810287,0.10244 0.810287,-0.17105 0,-0.29139 -1.739575,-0.67716 -2.653585,-0.64234 z m 24.782987,0.74517 c -0.42973,0.0147 -1.16388,0.10642 -2.38177,0.28112 -3.3973,0.48733 -3.75319,0.55536 -3.86539,0.73691 -0.16471,0.26652 0.59711,0.21184 3.22047,-0.231 1.31629,-0.2222 2.66062,-0.40411 2.98742,-0.40411 0.3268,0 0.59427,-0.0912 0.59427,-0.20257 0,-0.13289 -0.12528,-0.1951 -0.555,-0.18035 z m 10.11307,0.0739 c -0.20329,0.20329 0.84875,2.85523 1.24747,3.14451 0.44019,0.31936 1.95717,1.14101 2.19366,1.18804 0.076,0.0152 0.19394,-0.14834 0.262,-0.36277 0.092,-0.28994 0.5114,-0.48093 1.63659,-0.7462 0.83216,-0.19618 1.44367,-0.41347 1.35858,-0.48266 -0.0851,-0.0692 -0.79274,-0.33704 -1.57252,-0.59531 -0.77976,-0.25827 -2.23048,-0.86853 -3.22357,-1.35599 -0.99311,-0.48746 -1.84898,-0.84285 -1.90221,-0.78962 z m -46.663814,0.12351 c -0.07894,0.0287 -0.164356,0.17079 -0.236161,0.43873 -0.191058,0.71293 -0.151883,1.21208 0.183968,2.34301 0.323944,1.09084 0.493639,1.23992 0.881083,0.77308 0.174594,-0.21037 0.133253,-0.48956 -0.173116,-1.16479 -0.221585,-0.48836 -0.40528,-1.22971 -0.407727,-1.64744 -0.0031,-0.52355 -0.116487,-0.79049 -0.248047,-0.74259 z m 39.232754,0.38809 c -0.0164,0 -0.023,1.29875 -0.015,2.88613 0.0132,2.6015 -0.042,3.07413 -0.555,4.78988 -1.85707,6.21012 -6.24585,10.56078 -12.31036,12.20391 -2.55883,0.69329 -6.07249,0.65 -8.69043,-0.10697 -3.398631,-0.98271 -5.678286,-2.36214 -8.117337,-4.91184 -1.303935,-1.3631 -2.831112,-3.69755 -3.266984,-4.99402 -0.120459,-0.35828 -0.29022,-0.74389 -0.377238,-0.85679 -0.28423,-0.36881 -0.998389,-4.36629 -0.998389,-5.58881 0,-0.74015 -0.0852,-1.19372 -0.224792,-1.19372 -0.254298,0 -1.650864,1.13108 -3.65249,2.95744 -0.744743,0.67953 -1.772373,1.43167 -2.283065,1.67173 l -0.928109,0.43667 -0.0067,1.26452 c -0.0059,1.15624 -0.03202,1.23118 -0.303857,0.87178 -0.163551,-0.21624 -0.29714,-0.6949 -0.29714,-1.0635 0,-0.7225 -0.101013,-0.77539 -0.898136,-0.47232 -0.477226,0.18143 -0.519865,0.2955 -0.519865,1.40095 0,0.72808 0.15004,1.55008 0.379305,2.08101 0.371217,0.85966 0.469207,0.92353 4.810042,3.13572 2.437212,1.24205 5.115077,2.54781 5.950541,2.90163 0.835466,0.35381 1.792301,0.75995 2.126486,0.90227 2.837052,1.20821 8.484278,2.69458 11.443228,3.01222 1.53426,0.16471 6.25373,0.12196 7.5954,-0.0687 1.53598,-0.21829 4.81435,-0.93853 5.4684,-1.20147 0.22279,-0.0896 1.36199,-0.50326 2.53163,-0.91933 3.24477,-1.15422 7.01281,-3.0795 9.92446,-5.07152 0.80369,-0.54986 0.97842,-0.81391 1.48052,-2.23139 0.76984,-2.17329 1.00543,-5.85648 0.44132,-6.90397 -0.45803,-0.85051 -0.99649,-0.92798 -0.81855,-0.11782 0.13845,0.63038 -0.30183,2.10909 -0.66405,2.22983 -0.16476,0.0549 -0.23667,-0.32954 -0.23667,-1.26452 0,-1.72985 -0.31751,-2.30328 -1.65572,-2.99309 -0.59332,-0.30585 -2.02869,-1.05805 -3.18998,-1.67122 -1.16129,-0.61317 -2.12511,-1.11466 -2.14147,-1.11466 z m -29.72119,0.21652 c -0.7709,-0.0225 -1.61883,0.0867 -1.887223,0.30386 -0.36934,0.2988 -0.344056,0.3116 0.417029,0.20516 0.44558,-0.0623 1.311756,-0.12066 1.92443,-0.12971 0.810789,-0.012 1.003317,-0.064 0.708484,-0.19069 -0.265577,-0.11412 -0.70018,-0.17509 -1.16272,-0.18862 z m 27.45414,0.20154 c -1.09895,0.025 -6.13294,1.103 -6.08542,1.30328 0.0542,0.22843 0.46909,0.22911 1.71876,0.003 1.03224,-0.18691 1.17205,0.13583 0.20257,0.46767 -0.56542,0.19354 -0.44389,0.21303 0.86093,0.13695 0.83546,-0.0487 1.60996,-0.0926 1.72135,-0.0977 v -5.2e-4 c 0.40016,-0.0183 -0.41542,-0.40211 -0.86093,-0.40514 -0.25064,-10e-4 -0.45527,-0.0962 -0.45527,-0.21033 0,-0.28792 0.70535,-0.52305 2.07274,-0.69091 1.20417,-0.14782 1.82552,-0.52913 0.82527,-0.50643 z m -29.582692,0.80047 c -0.56793,-0.003 -0.657841,0.066 -0.657841,0.50281 0,0.36178 0.1095,0.50643 0.383439,0.50643 0.210873,0 0.43559,-0.13677 0.499711,-0.30386 0.06412,-0.16709 0.324639,-0.30525 0.578776,-0.30696 0.372618,-0.002 0.403125,-0.0406 0.15813,-0.19895 -0.167094,-0.10799 -0.600181,-0.19777 -0.962215,-0.19947 z m 22.984642,1.2206 c -0.19648,-0.002 -0.43044,0.007 -0.71778,0.0233 -1.1199,0.0633 -1.49677,0.18109 -2.13062,0.66456 -0.77468,0.59087 -1.37993,1.55664 -1.63143,2.60242 -0.29125,1.21105 0.64639,3.14481 1.87224,3.86075 0.79854,0.46637 2.27136,0.77503 2.56057,0.53692 0.1114,-0.0917 0.52168,-0.22426 0.91157,-0.29456 0.63603,-0.11471 0.85443,-0.015 2.12649,0.96842 1.30319,1.00751 1.72134,1.19188 1.72134,0.75861 0,-0.09 -0.38586,-0.41941 -0.85783,-0.73174 -1.01013,-0.66847 -0.70464,-0.91906 0.47284,-0.38809 1.18674,0.53514 1.13532,0.25797 -0.11111,-0.60048 -1.38266,-0.95229 -1.59548,-1.20956 -1.43092,-1.72806 0.1551,-0.48868 0.56043,-0.53795 0.91468,-0.1111 0.31951,0.38497 0.60719,0.39038 0.60719,0.0114 0,-0.1608 -0.25846,-0.44523 -0.57464,-0.632 -0.44367,-0.26209 -0.55344,-0.45195 -0.48059,-0.83302 0.0692,-0.36191 0.18239,-0.45691 0.42323,-0.35605 2.44242,1.02286 3.06286,1.19889 3.06286,0.87074 0,-0.17039 -0.63763,-0.4731 -1.65468,-0.78599 -1.50824,-0.46402 -1.69527,-0.58044 -2.1177,-1.3162 -0.69938,-1.21818 -0.64733,-1.3131 0.72141,-1.3131 1.07777,0 1.19938,-0.0421 1.17202,-0.40514 -0.0317,-0.42049 -0.0813,-0.45011 -0.75448,-0.45011 -1.65946,0 -2.23785,0.0673 -2.12648,0.24753 0.21433,0.3468 -0.22352,0.22253 -0.7922,-0.22479 -0.34429,-0.27082 -0.59653,-0.36932 -1.18598,-0.37414 z m -11.25099,0.21187 c -0.36859,-0.0226 -0.74566,0.10467 -1.10071,0.38396 -0.97892,0.77001 -0.84627,2.22275 0.25373,2.77915 0.63185,0.31959 0.92149,0.32463 1.48157,0.0264 1.0876,-0.57926 1.2787,-1.81001 0.41496,-2.67374 -0.32079,-0.3208 -0.68096,-0.49309 -1.04955,-0.51573 z m -9.364805,0.4532 c -0.08423,4.4e-4 -0.178238,0.019 -0.279569,0.0579 -0.253386,0.0972 -0.27459,0.18925 -0.09457,0.40617 0.304395,0.36678 0.790649,0.3594 0.790649,-0.0119 0,-0.28882 -0.163827,-0.45347 -0.416512,-0.45217 z m 27.540955,0.15813 c -0.17936,-0.024 -0.4995,0.0174 -1.0635,0.11059 -0.94807,0.15665 -0.60445,0.46772 0.52193,0.47232 0.54148,0.002 0.75913,-0.0842 0.75913,-0.30076 0,-0.16857 -0.0382,-0.25818 -0.21756,-0.28215 z m -24.190771,0.43977 c -0.06424,-0.01 -0.152644,0.003 -0.250114,0.0424 -0.97574,0.39109 -3.326414,1.10079 -4.405416,1.33015 -1.629172,0.3463 -1.710902,0.42453 -1.452625,1.39217 l 0.211874,0.79375 1.126546,-0.57671 c 0.61976,-0.31738 1.514046,-0.68994 1.987475,-0.82734 0.47343,-0.13741 0.86093,-0.32637 0.86093,-0.42013 0,-0.23007 -0.267529,-0.21448 -0.94878,0.0553 -0.973291,0.38544 -2.494421,0.7573 -2.494421,0.60978 0,-0.1511 1.890761,-0.91114 4.101559,-1.64899 0.751918,-0.25096 1.367358,-0.54491 1.367358,-0.65319 0,-0.0541 -0.04014,-0.0872 -0.104386,-0.0971 z m 22.079271,0.75396 c -0.18025,0 -0.27142,0.0906 -0.20257,0.20205 0.0688,0.1114 0.16002,0.20257 0.20257,0.20257 0.0426,0 0.13374,-0.0911 0.20258,-0.20257 0.0688,-0.11139 -0.0224,-0.20205 -0.20258,-0.20205 z m 13.89114,0.8294 c -0.0851,0.0233 -0.13323,0.31021 -0.0739,0.84129 0.0891,0.79787 -0.36679,4.68938 -0.68006,5.80378 -0.20457,0.72775 0.25415,0.35747 0.74207,-0.59893 0.48803,-0.9566 0.80811,-3.07976 0.59273,-3.92999 -0.0859,-0.33913 -0.21382,-0.95841 -0.28474,-1.37614 -0.0888,-0.52301 -0.21103,-0.76331 -0.2961,-0.74001 z m -35.73115,0.64234 c -0.397079,0.0547 -1.350305,0.49781 -1.350305,0.65991 0,0.18837 0.435013,0.091 1.07332,-0.2403 0.356505,-0.18505 0.540448,-0.37303 0.40876,-0.41754 -0.02962,-0.01 -0.07505,-0.01 -0.131775,-0.002 z m 38.53769,0.35088 c -0.33672,0 -0.39325,0.14546 -0.39325,1.01286 0,0.55698 0.0771,1.01234 0.17156,1.01234 0.0945,0 0.3326,-0.35629 0.52917,-0.7922 0.39055,-0.86608 0.29933,-1.233 -0.30748,-1.233 z m -40.289521,0.46044 c -0.485777,0.0498 -1.816955,0.89141 -1.912544,1.27227 -0.07215,0.28749 -0.411173,0.56925 -0.939995,0.78083 -0.480232,0.19215 -0.789397,0.43547 -0.736389,0.57981 0.05023,0.13676 0.216835,0.21455 0.370003,0.17312 1.046148,-0.28296 1.092164,-0.26087 0.506429,0.2403 l -0.581876,0.49764 0.372587,0.63097 c 0.428889,0.72606 0.495352,0.74167 1.326017,0.31212 0.338708,-0.17514 0.742858,-0.26991 0.898137,-0.21032 0.155278,0.0596 0.541744,-0.04 0.858345,-0.22169 0.492494,-0.28266 0.545478,-0.39429 0.367936,-0.7705 l -0.207222,-0.43976 -0.820622,0.57361 c -0.98856,0.69086 -2.137337,0.97927 -2.137337,0.5364 0,-0.53458 1.104343,-1.34008 4.101558,-2.99207 0.417737,-0.23024 0.759127,-0.55158 0.759127,-0.71365 0,-0.32803 -0.09515,-0.30099 -2.101164,0.59738 -0.65437,0.29305 -1.236771,0.4856 -1.294494,0.42788 -0.16894,-0.16894 0.39994,-0.7482 0.93431,-0.95136 0.270664,-0.10291 0.44525,-0.23429 0.387573,-0.29197 -0.02884,-0.0288 -0.08098,-0.0381 -0.150379,-0.031 z m -3.35225,0.77773 c -0.103265,0 -0.322601,0.0597 -0.600997,0.17932 -0.267093,0.11478 -0.301605,0.17818 -0.101286,0.18552 0.167094,0.006 0.440622,-0.0775 0.607715,-0.18552 0.185116,-0.11964 0.197834,-0.17932 0.09457,-0.17932 z m 28.248921,0.17932 c -0.11797,0 -0.15827,0.0911 -0.0894,0.20257 0.0688,0.1114 0.16534,0.20257 0.21446,0.20257 0.0491,0 0.0894,-0.0911 0.0894,-0.20257 0,-0.11139 -0.0965,-0.20257 -0.21446,-0.20257 z m -41.831554,0.60771 c -0.211914,0 -0.284221,0.30211 -0.284221,1.18184 0,0.64981 0.06061,1.24193 0.134876,1.3162 0.19505,0.19505 0.204148,0.16 0.324528,-1.23196 0.08684,-1.00416 0.05058,-1.26608 -0.175183,-1.26608 z m 19.860286,0.41031 c -0.111808,-0.022 -0.366592,0.0943 -0.585494,0.31316 -0.175045,0.17506 -0.318327,0.36071 -0.318327,0.41238 0,0.14541 0.772004,-0.3025 0.912089,-0.52917 0.07423,-0.1201 0.05882,-0.18319 -0.0083,-0.19637 z m -21.913908,0.0238 c -0.04458,-0.013 -0.10211,-0.01 -0.174666,0.004 -0.331013,0.0643 -0.555462,1.03508 -0.334347,1.44591 0.20555,0.38192 0.561649,-0.0497 0.620634,-0.75241 0.03972,-0.47328 0.0221,-0.6585 -0.111621,-0.69764 z m 43.199436,0.27182 c -0.14854,0.0222 -0.1623,0.19016 0.0222,0.37466 0.19356,0.19357 0.47284,0.16641 0.47284,-0.046 0,-0.0995 -0.13677,-0.23352 -0.30386,-0.29765 -0.0772,-0.0296 -0.14169,-0.0384 -0.1912,-0.031 z m -20.150713,0.91468 c -0.278167,0 -4.67155,3.62599 -4.67155,3.85557 0,0.31548 0.158517,0.2401 1.376144,-0.65267 1.555665,-1.14064 3.485056,-2.81848 3.485056,-3.03082 0,-0.0947 -0.08549,-0.17208 -0.18965,-0.17208 z m 13.238473,0.47439 c -0.11282,0.0233 0.19609,0.45943 1.20148,1.79472 0.79926,1.06152 1.0814,1.30849 1.29191,1.13378 0.21916,-0.1819 0.18355,-0.32118 -0.18966,-0.74983 -1.18244,-1.35806 -1.71086,-1.89243 -2.06034,-2.08256 -0.12117,-0.0659 -0.20579,-0.10388 -0.24339,-0.0961 z m 3.28145,0.78548 c -0.0239,-4.4e-4 -0.0415,0.004 -0.0522,0.015 -0.0616,0.0615 0.26849,0.52511 0.7338,1.02991 0.5384,0.5841 0.79022,1.01295 0.69247,1.17978 -0.0845,0.14419 0.0444,0.0887 0.28629,-0.12351 0.24194,-0.2122 0.44028,-0.49895 0.44028,-0.63717 0,-0.26836 -1.74197,-1.45739 -2.10065,-1.46399 z m -5.73195,0.43253 c -0.044,0.0232 -0.0667,0.10874 -0.0667,0.25786 0,0.39999 2.65126,4.93302 2.88613,4.93459 0.0835,6e-4 0.15193,-0.0921 0.15193,-0.20619 0,-0.11409 -0.31976,-0.67214 -0.71055,-1.24024 -0.39078,-0.5681 -0.98601,-1.61073 -1.32292,-2.31665 -0.48158,-1.00909 -0.80592,-1.49908 -0.93793,-1.42937 z m 1.70119,0.13022 c -0.0937,0 -0.009,0.27354 0.18862,0.60772 0.19741,0.33419 0.43549,0.60771 0.52917,0.60771 0.0937,0 0.009,-0.27352 -0.18862,-0.60771 -0.19741,-0.33418 -0.4355,-0.60772 -0.52917,-0.60772 z m -13.7418,0.40515 c -0.146033,0 -1.349046,0.97427 -2.210201,1.78955 l -0.499711,0.47284 0.75706,-0.3576 c 0.989017,-0.46682 1.183634,-0.24025 0.376721,0.43873 -0.505341,0.42521 -0.590075,0.59636 -0.40566,0.81856 0.362047,0.43624 0.496079,0.35623 1.314131,-0.78238 0.479345,-0.66717 0.772281,-1.30834 0.785999,-1.72135 0.01202,-0.36204 -0.04133,-0.65835 -0.118339,-0.65835 z m 1.956987,0.25631 c -0.01802,-10e-4 -0.04271,0.0148 -0.07441,0.0475 -0.5946,0.61453 -2.668576,3.36676 -2.668576,3.54139 0,0.44284 0.395049,0.1615 1.133781,-0.80719 0.42475,-0.55698 0.934075,-1.01285 1.131715,-1.01285 0.22208,0 0.51911,-0.32843 0.777733,-0.86042 l 0.41858,-0.86093 -0.44442,0.50643 -0.444423,0.50643 0.14573,-0.60771 c 0.07065,-0.29478 0.07835,-0.44931 0.02429,-0.45269 z m 13.151653,0.14883 c -0.038,0 0.358,0.63685 0.87953,1.41542 0.8267,1.23411 1.25161,1.68095 1.25161,1.31465 0,-0.12668 -2.03224,-2.73007 -2.13114,-2.73007 z m -10.28929,0.20154 c -0.0545,0.004 -0.12361,0.14845 -0.19534,0.45682 -0.0583,0.25063 -0.34826,1.4022 -0.64441,2.55901 -0.35782,1.39778 -0.4706,2.17059 -0.33641,2.30477 0.19867,0.19867 0.69476,-0.73381 0.96635,-1.81591 0.12031,-0.47933 0.42593,-0.78794 0.6041,-0.60978 0.0545,0.0545 -0.0427,0.64675 -0.21601,1.31568 -0.17334,0.66892 -0.31471,1.27148 -0.31471,1.33894 0,0.28212 0.80547,0.0939 0.98702,-0.23048 0.18651,-0.33328 0.50172,-0.2384 0.55707,0.16743 0.07,0.51309 0.14093,0.40924 0.28887,-0.42219 0.0892,-0.50128 0.16687,-1.23018 0.1726,-1.62006 l 0.0103,-0.709 -0.32298,0.65526 c -0.52549,1.0659 -0.7301,0.58023 -0.60565,-1.43867 0.10593,-1.71837 0.096,-1.78597 -0.13849,-0.95292 -0.37311,1.32543 -0.80749,1.34893 -0.71675,0.0388 0.0458,-0.66124 -0.005,-1.04433 -0.0956,-1.03766 z m 3.53983,0.2036 c -0.18382,0 -0.47805,5.23607 -0.30954,5.50871 0.0551,0.0892 0.32881,0.16226 0.60823,0.16226 0.3913,0 0.48223,-0.0815 0.39636,-0.3545 -0.29117,-0.92558 -0.52348,-2.66772 -0.52348,-3.92637 0,-0.76456 -0.077,-1.3901 -0.17157,-1.3901 z m -42.807723,0.20257 c 1.083633,0 1.490871,0.57567 0.856278,1.21027 -0.462955,0.46295 -1.794587,0.56444 -2.192114,0.16691 -0.615887,-0.61589 0.122761,-1.37718 1.335836,-1.37718 z m 38.451403,0.2651 c -0.0315,-0.0315 -0.48534,0.71217 -1.00872,1.6521 -0.90421,1.62385 -1.263653,2.08447 -1.467103,1.88102 -0.0498,-0.0498 0.0475,-0.42083 0.21601,-0.82424 0.446833,-1.06942 0.364783,-1.16511 -0.20516,-0.23978 -0.646619,1.04986 -0.631207,1.20123 0.15762,1.59009 1.078123,0.53148 1.256573,0.44464 1.502233,-0.72967 0.12235,-0.58483 0.36661,-1.56033 0.5426,-2.16783 0.17599,-0.60749 0.29398,-1.13023 0.26252,-1.16169 z m 5.25963,0.27906 c -0.11224,-0.0426 -0.10245,0.32326 -0.0222,1.48104 0.19299,2.7852 0.30895,3.47511 0.5705,3.38481 0.1628,-0.0562 0.21657,-0.5441 0.16847,-1.53117 -0.049,-1.00586 0.002,-1.44849 0.16485,-1.44849 0.1435,0 0.21077,-0.25699 0.17208,-0.65836 -0.0367,-0.38105 -0.1773,-0.65836 -0.33331,-0.65836 -0.14822,0 -0.40288,-0.18234 -0.56586,-0.40514 -0.0664,-0.0908 -0.1171,-0.15013 -0.15451,-0.16433 z m 2.30632,0.26561 c -0.11139,0 -0.20258,0.0911 -0.20258,0.20258 0,0.1114 0.0911,0.20257 0.20258,0.20257 0.11139,0 0.20257,-0.0911 0.20257,-0.20257 0,-0.11139 -0.0911,-0.20258 -0.20257,-0.20258 z m -0.69454,0.27079 c -0.0192,-0.0119 -0.0363,-0.0122 -0.0501,0.002 -0.085,0.085 0.40729,2.74375 0.65267,3.52537 0.0938,0.29884 0.67508,0.32714 1.10484,0.0537 0.25558,-0.16257 0.26154,-0.2608 0.0388,-0.62012 -0.19986,-0.32237 -0.20808,-0.49563 -0.0336,-0.7059 0.17889,-0.21555 0.10891,-0.47556 -0.30954,-1.14877 -0.53177,-0.85553 -0.55845,-0.76585 -0.17983,0.59842 0.0704,0.25368 0.036,0.45578 -0.077,0.45578 -0.20382,0 -0.68811,-0.90759 -0.95395,-1.78748 -0.0587,-0.19428 -0.13463,-0.33678 -0.19224,-0.37259 z m 4.20285,1.01441 c -0.11888,0.1189 0.60115,1.14662 0.72192,1.03043 0.0429,-0.0413 -0.0782,-0.31351 -0.26924,-0.60514 -0.19108,-0.29163 -0.39493,-0.48303 -0.45268,-0.42529 z m -2.08256,0.1819 c -0.005,0.003 -0.008,0.009 -0.008,0.0196 0,0.34225 0.90385,1.92237 1.04851,1.83296 0.0922,-0.057 0.0627,-0.30286 -0.0656,-0.54674 -0.26802,-0.50943 -0.89749,-1.34317 -0.97513,-1.30586 z m -5.50716,0.86248 -0.27285,0.70848 c -0.37348,0.9698 -0.37348,1.62057 0,1.62057 0.2366,0 0.30035,-0.25777 0.28835,-1.16478 z m 34.07905,1.15652 c 0.41369,0.0268 1.16189,0.21405 2.64273,0.58756 3.32287,0.8381 3.94935,1.25896 3.05666,2.05207 -0.32113,0.28529 -0.46839,0.28108 -1.56941,-0.0444 -0.66837,-0.19761 -1.96609,-0.56501 -2.88406,-0.81701 -1.8788,-0.51574 -2.22093,-0.77079 -1.88258,-1.40301 0.14354,-0.26821 0.22297,-0.40199 0.63666,-0.37517 z m -14.24668,1.26504 c -0.13487,-0.0355 -0.46782,0.0573 -0.99683,0.32556 -0.84356,0.42773 -1.1741,0.72174 -1.1808,1.05006 -0.005,0.27567 0.39881,0.15884 1.19888,-0.34623 0.87894,-0.55484 1.20354,-0.97027 0.97875,-1.02939 z m -49.892036,0.53846 c 0.181891,0.0165 0.274654,0.10972 0.412895,0.29249 0.400906,0.53003 0.38477,0.63913 -0.145728,0.98289 -0.465508,0.30165 -6.526781,2.34663 -6.955131,2.34663 -0.129964,0 -0.345841,-0.13229 -0.480074,-0.29404 -0.539898,-0.65054 -0.153163,-0.98476 2.017965,-1.7446 1.169271,-0.40922 2.353393,-0.83424 2.631881,-0.94465 0.278487,-0.11041 0.984963,-0.32178 1.56993,-0.46973 0.494878,-0.12517 0.766372,-0.18553 0.948262,-0.16899 z m 46.307776,0.98909 c -0.30273,0 -0.82424,0.60831 -0.82424,0.96118 0,0.25756 0.10421,0.2265 0.50591,-0.15089 0.27849,-0.26162 0.50643,-0.55088 0.50643,-0.64286 0,-0.092 -0.0846,-0.16743 -0.1881,-0.16743 z m -2.03864,0.85163 c -0.18891,0.0193 -0.57731,0.11729 -1.00046,0.25786 -0.82836,0.27514 -1.02577,0.42889 -1.02577,0.79737 0,0.25097 0.0508,0.5071 0.11317,0.56948 0.18962,0.18962 1.26847,-0.44246 1.70739,-1.00046 0.2271,-0.2887 0.37198,-0.56594 0.32194,-0.61598 -0.0125,-0.0125 -0.0533,-0.0147 -0.11627,-0.008 z m 16.31527,0.2744 c 0.7274,-0.0569 3.1013,0.99879 10.37456,4.26744 0.58836,0.26441 1.12506,0.62472 1.1927,0.80098 0.15432,0.40214 -0.53388,1.08765 -0.9462,0.94258 -0.28162,-0.0991 -6.43567,-2.78075 -8.50646,-3.70675 -2.12552,-0.95047 -2.3278,-1.08929 -2.39158,-1.64072 -0.0442,-0.38221 -0.0536,-0.63768 0.27698,-0.66353 z m -71.187376,1.45107 c 0.411957,-0.0173 0.564763,0.13628 0.647506,0.45269 0.163439,0.625 -0.148624,0.85086 -2.110466,1.52497 -1.042324,0.35815 -2.032256,0.70233 -2.199349,0.76481 -1.41945,0.53074 -2.065958,0.64861 -2.295467,0.4191 -0.07426,-0.0742 -0.134875,-0.38555 -0.134875,-0.69195 0,-0.6235 -0.0181,-0.61512 3.891235,-1.89756 1.118235,-0.36683 1.789459,-0.55476 2.201416,-0.57206 z m 18.358569,1.78336 c 0.125336,0.0215 0.211262,0.14424 0.371037,0.38809 0.180014,0.27474 0.273632,0.58688 0.207739,0.6935 -0.15373,0.24874 -2.885733,2.05207 -3.108854,2.05207 -0.09271,0 -0.278186,-0.10921 -0.411861,-0.24288 -0.683449,-0.68345 0.03235,-1.50228 2.333708,-2.67064 0.318388,-0.16163 0.482895,-0.24169 0.608231,-0.22014 z m 43.342567,0.70228 c 0.39385,0.0632 1.47494,0.98736 6.85074,5.46943 6.18151,5.15385 6.19463,5.16814 5.24568,5.79707 -0.387,0.25649 -0.84873,-0.0849 -6.64456,-4.90978 -6.44478,-5.36516 -6.6974,-5.63883 -5.75003,-6.2327 0.11216,-0.0703 0.16689,-0.14509 0.29817,-0.12402 z m 10.17767,0.62322 c 0.11911,-0.0216 0.25283,0.0462 0.48938,0.18758 0.27961,0.16709 1.51511,0.88215 2.74609,1.58854 1.78589,1.02485 2.2381,1.37473 2.2381,1.73167 0,0.41374 -0.33701,0.93824 -0.59738,0.92966 -0.0612,-0.002 -0.56698,-0.2624 -1.12396,-0.57826 -3.37802,-1.91561 -4.33213,-2.51051 -4.42867,-2.7621 -0.0596,-0.1551 0.064,-0.49168 0.2744,-0.74776 0.17804,-0.21664 0.28293,-0.3277 0.40204,-0.34933 z m -70.136794,1.13533 c 0.07255,0.008 0.124637,0.0307 0.164848,0.0641 0.167611,0.13911 0.304374,0.45389 0.304374,0.69918 0,0.35092 -0.26952,0.56816 -1.265555,1.01906 -0.696221,0.31517 -1.812615,0.82162 -2.480986,1.12551 -4.036474,1.83528 -6.384134,2.82825 -6.686413,2.82825 -0.157779,0 -0.381179,-0.17543 -0.496094,-0.39015 -0.313074,-0.58498 -0.06962,-0.95865 0.868681,-1.33377 0.464833,-0.18582 1.323585,-0.5579 1.90841,-0.82631 5.65219,-2.59409 7.174869,-3.243 7.682735,-3.18585 z m 10.822079,0.56224 c 0.317642,0.0101 0.480662,0.23605 0.546737,0.67903 0.05108,0.34244 -0.33494,0.6846 -1.973523,1.75131 -1.120172,0.72923 -2.158748,1.32602 -2.30787,1.32602 -0.149124,0 -0.388394,-0.21944 -0.53175,-0.48731 -0.314208,-0.58711 -0.187201,-0.82953 0.660941,-1.264 0.354971,-0.18185 0.691028,-0.39266 0.746725,-0.46819 0.0557,-0.0755 0.678503,-0.49021 1.383895,-0.92191 0.684906,-0.41916 1.157203,-0.62502 1.474845,-0.61495 z m 17.313672,0.21187 c 0.992777,0 0.838634,0.6387 -0.785999,3.25975 -1.181649,1.90638 -1.598644,2.42379 -1.992126,2.47117 -0.273731,0.033 -0.562445,-0.005 -0.641822,-0.0842 -0.347544,-0.34754 -0.02529,-1.13663 1.356507,-3.31763 1.328035,-2.09616 1.534669,-2.32906 2.06344,-2.32906 z m -6.057512,0.50643 c 0.338887,0 0.872815,0.48261 0.872815,0.7891 0,0.49573 -3.20645,4.07159 -3.65094,4.07159 -0.192759,0 -0.46529,-0.13876 -0.606164,-0.30851 -0.31006,-0.3736 -0.16,-0.73028 0.813904,-1.93218 0.737335,-0.90995 2.415026,-2.62 2.570385,-2.62 z m 21.907715,0.61805 c 0.2186,-0.0131 0.44619,0.0657 0.58911,0.24236 0.28748,0.35538 0.7111,2.37915 0.62528,2.98742 -0.0528,0.37451 -0.21144,0.52293 -0.60926,0.56896 -0.29582,0.0342 -0.6088,-0.0529 -0.69557,-0.19327 -0.29397,-0.47566 -0.63005,-2.96462 -0.44493,-3.29541 0.10727,-0.19169 0.31676,-0.29696 0.53537,-0.31006 z m 36.63909,1.63918 c 0.41294,-0.002 1.04511,0.27654 2.20349,0.90279 0.94847,0.51278 2.652,1.41678 3.78529,2.00866 1.69712,0.88633 2.07169,1.16569 2.12339,1.58543 0.0413,0.33468 -0.0665,0.57875 -0.31368,0.71107 -0.29909,0.16007 -0.89508,-0.0721 -2.89853,-1.12965 -1.38699,-0.73213 -3.1548,-1.66728 -3.92844,-2.07842 -1.60112,-0.85089 -1.94239,-1.2285 -1.54409,-1.70843 0.15623,-0.18824 0.32481,-0.29036 0.57257,-0.29145 z m -67.301826,0.047 c 0.100516,0.013 0.194325,0.0633 0.319361,0.13023 0.721697,0.38624 0.393646,1.02028 -1.19941,2.32027 -0.822094,0.67086 -2.507823,2.06165 -3.746542,3.09025 -2.36325,1.96238 -3.19907,2.31738 -3.466972,1.4733 -0.0704,-0.2218 -0.07402,-0.4912 -0.0078,-0.59842 0.06627,-0.10723 1.097733,-0.99113 2.29185,-1.96422 1.194118,-0.97309 2.85475,-2.3263 3.690214,-3.00757 1.454809,-1.18631 1.817704,-1.48282 2.11925,-1.44384 z m 47.401236,1.42162 c 0.0584,0.004 0.1152,0.0154 0.16795,0.0357 0.16425,0.063 0.67538,0.56178 1.13636,1.10846 0.46097,0.54669 1.70482,1.9665 2.76366,3.15485 1.05885,1.18835 1.89791,2.29584 1.865,2.46134 -0.0329,0.16548 -0.25601,0.43103 -0.49609,0.59015 -0.40494,0.2684 -0.48769,0.23356 -1.14619,-0.48214 -2.77506,-3.01609 -5.18995,-5.88942 -5.19555,-6.18205 -0.007,-0.36144 0.49617,-0.71265 0.90486,-0.68627 z m -57.071963,0.12299 c 0.57798,-7.7e-4 0.945383,0.63807 0.606681,1.05524 -0.719585,0.88626 -2.014458,1.26016 -2.248958,0.64905 -0.06762,-0.1762 -0.12299,-0.45119 -0.12299,-0.61081 0,-0.36686 1.171562,-1.09248 1.765267,-1.09348 z m 25.59792,1.2144 c 0.798308,0 0.894908,0.56213 0.318844,1.85208 -0.266369,0.59646 -0.691649,1.63176 -0.945162,2.30012 -0.613219,1.61671 -1.472298,3.40702 -1.723409,3.59151 -0.260376,0.19129 -0.33206,0.18553 -0.759644,-0.0636 -0.194941,-0.11354 -0.3545,-0.34605 -0.3545,-0.51676 0,-0.27652 2.105745,-5.55009 2.67839,-6.70761 0.152505,-0.30826 0.406838,-0.45578 0.785481,-0.45578 z m -34.250622,0.7121 c 0.328897,-0.007 0.496587,0.18814 0.574642,0.58498 0.09588,0.4875 -0.256517,0.83848 -1.543058,1.5353 -1.276527,0.6914 -1.513325,0.73181 -1.857768,0.31678 -0.446971,-0.53857 -0.119884,-0.99781 1.286226,-1.80557 0.721191,-0.4143 1.211061,-0.6243 1.539958,-0.63149 z m 80.827615,0.13694 c 0.36064,-0.0594 0.98496,0.32789 1.93839,1.17874 0.76415,0.68194 1.63979,1.38986 1.94613,1.57355 0.67294,0.4035 0.77065,1.33361 0.17363,1.65313 -0.29591,0.15836 -0.51567,0.10403 -0.96221,-0.2372 -0.31824,-0.2432 -1.24403,-1.0309 -2.05724,-1.75079 -1.2108,-1.07183 -1.46728,-1.4036 -1.41749,-1.83193 0.0411,-0.35352 0.16241,-0.54989 0.37879,-0.5855 z m -60.987482,2.62362 c 0.133613,0.0188 0.253327,0.0926 0.374137,0.21342 0.429098,0.4291 0.272305,0.73179 -1.290877,2.48874 -1.579066,1.7748 -2.12163,2.05756 -2.519226,1.31464 -0.271529,-0.50735 -0.243216,-0.55405 1.476912,-2.47685 1.034895,-1.15683 1.558214,-1.59631 1.959054,-1.53995 z"
       inkscape:export-filename="pyramid-mask.svg"
       inkscape:export-xdpi="96"
       inkscape:export-ydpi="96" /></g></svg>
